<svg width="61" height="61" viewBox="0 0 61 61" fill="none" xmlns="http://www.w3.org/2000/svg">
<path d="M1.05 58.9904C2.55 60.4904 4.85 60.4904 6.35 58.9904L29.95 35.3904L53.55 58.9904C54.95 60.5904 57.25 60.6904 58.85 59.3904C60.45 58.0904 60.55 55.6904 59.25 54.0904C59.15 53.9904 59.05 53.7904 58.85 53.6904L35.25 30.0904L58.85 6.49041C60.35 5.09041 60.45 2.69041 59.05 1.19041C57.65 -0.309592 55.25 -0.409593 53.75 0.990407C53.65 1.09041 53.65 1.09041 53.55 1.19041L29.95 24.7904L6.35 1.19041C4.85 -0.209592 2.45 -0.109593 1.05 1.39041C-0.25 2.79041 -0.25 5.09041 1.05 6.49041L24.65 30.0904L1.05 53.6904C-0.35 55.1904 -0.35 57.4904 1.05 58.9904Z" fill="black"/>
</svg>
